<svg width="50" height="60" viewBox="0 0 50 60" fill="none" xmlns="http://www.w3.org/2000/svg">
<path d="M0 1C0 0.447716 0.447715 0 1 0H30C41.0457 0 50 8.95431 50 20V24C50 24.5523 49.5523 25 49 25H0.999999C0.447714 25 0 24.5523 0 24V1Z" fill="#4194B1"/>
<path d="M0 31C0 30.4477 0.447715 30 1 30H49C49.5523 30 50 30.4477 50 31V44C50 44.5523 49.5523 45 49 45H0.999999C0.447714 45 0 44.5523 0 44V31Z" fill="#41ABB1"/>
<path d="M0 51C0 50.4477 0.447715 50 1 50H49.0909C49.593 50 50 50.407 50 50.9091V50.9091C50 55.9299 45.9299 60 40.9091 60H0.999999C0.447714 60 0 59.5523 0 59V51Z" fill="#41C6B1"/>
</svg>
