<svg width="96" height="96" viewBox="0 0 96 96" fill="none" xmlns="http://www.w3.org/2000/svg">
<path d="M24 19.9667C24 19.4328 24.4328 19 24.9667 19H53C63.6775 19 72.3334 27.6558 72.3334 38.3333V42.2C72.3334 42.7339 71.9006 43.1667 71.3667 43.1667H24.9667C24.4328 43.1667 24 42.7339 24 42.2V19.9667Z" fill="#4194B1"/>
<path d="M24 48.9667C24 48.4328 24.4328 48 24.9667 48H71.3667C71.9006 48 72.3334 48.4328 72.3334 48.9667V61.5333C72.3334 62.0672 71.9006 62.5 71.3667 62.5H24.9667C24.4328 62.5 24 62.0672 24 61.5333V48.9667Z" fill="#41ABB1"/>
<path d="M24 68.3C24 67.7662 24.4328 67.3334 24.9667 67.3334H71.4546C71.9399 67.3334 72.3334 67.7268 72.3334 68.2122C72.3334 73.0656 68.3989 77 63.5455 77H24.9667C24.4328 77 24 76.5673 24 76.0334V68.3Z" fill="#41C6B1"/>
</svg>
